<svg xmlns="http://www.w3.org/2000/svg" xmlns:xlink="http://www.w3.org/1999/xlink" width="26" height="26" viewBox="0 0 26 26">
  <metadata><?xpacket begin="﻿" id="W5M0MpCehiHzreSzNTczkc9d"?>
<x:xmpmeta xmlns:x="adobe:ns:meta/" x:xmptk="Adobe XMP Core 5.6-c138 79.159824, 2016/09/14-01:09:01        ">
   <rdf:RDF xmlns:rdf="http://www.w3.org/1999/02/22-rdf-syntax-ns#">
      <rdf:Description rdf:about=""/>
   </rdf:RDF>
</x:xmpmeta>





















<?xpacket end="w"?></metadata>
<defs>
    <style>
      .cls-1 {
        fill: #34495e;
        stroke: #000;
        stroke-linejoin: round;
        stroke-width: 1px;
        fill-rule: evenodd;
        filter: url(#filter);
      }
    </style>
    <filter id="filter" x="1520" y="126" width="27" height="27" filterUnits="userSpaceOnUse">
      <feFlood result="flood" flood-color="#d0d0d0"/>
      <feComposite result="composite" operator="in" in2="SourceGraphic"/>
      <feBlend result="blend" in2="SourceGraphic"/>
    </filter>
  </defs>
  <g transform="translate(-1520.5 -126.5)" style="fill: #34495e; filter: url(#filter)">
    <path id="Cross_16x16_copy" data-name="Cross (16x16) copy" class="cls-1" d="M1543.74,131.514a0.8,0.8,0,0,1,0,1.14l-6.27,6.269a0.815,0.815,0,0,0,0,1.14l6.27,6.272a0.8,0.8,0,0,1,0,1.139l-2.28,2.278a0.811,0.811,0,0,1-1.14,0l-6.28-6.272a0.809,0.809,0,0,0-1.14,0l-6.27,6.267a0.809,0.809,0,0,1-1.14,0l-2.29-2.281a0.814,0.814,0,0,1,0-1.139l6.28-6.268a0.8,0.8,0,0,0,0-1.14l-6.27-6.272a0.815,0.815,0,0,1,0-1.14l2.28-2.277a0.821,0.821,0,0,1,1.15,0l6.27,6.269a0.808,0.808,0,0,0,1.14,0l6.27-6.266a0.809,0.809,0,0,1,1.14,0Z" style="stroke: inherit; filter: none; fill: inherit"/>
  </g>
  <use transform="translate(-1520.5 -126.5)" xlink:href="#Cross_16x16_copy" style="stroke: #000; filter: none; fill: none"/>
</svg>
